<?xml version="1.0" encoding="UTF-8"?>
<svg xmlns="http://www.w3.org/2000/svg" width="16" height="16" viewBox="0 0 16 16" fill="none">
  <path fill-rule="evenodd" clip-rule="evenodd" d="M8 16C12.4183 16 16 12.4183 16 8C16 3.58172 12.4183 0 8 0C3.58172 0 0 3.58172 0 8C0 12.4183 3.58172 16 8 16ZM12.6148 6.11697C13.1282 5.46675 13.0172 4.52351 12.367 4.01018C11.7167 3.49685 10.7735 3.60782 10.2602 4.25803L6.75881 8.6931L5.74653 7.39159C5.23792 6.73767 4.29551 6.61987 3.64159 7.12847C2.98767 7.63708 2.86987 8.57949 3.37847 9.23341L5.17423 11.5422C5.97128 12.567 7.51826 12.5726 8.3227 11.5537L12.6148 6.11697Z" fill="#22D172"></path>
</svg>
